<?xml version="1.0" ?><!DOCTYPE svg  PUBLIC '-//W3C//DTD SVG 1.1//EN'  'http://www.w3.org/Graphics/SVG/1.1/DTD/svg11.dtd'><svg enable-background="new 0 0 24 24" height="24px" id="Layer_1" version="1.1" viewBox="0 0 24 24" width="24px" xml:space="preserve" xmlns="http://www.w3.org/2000/svg" xmlns:xlink="http://www.w3.org/1999/xlink"><g><path fill="#C82333" d="M20.9,0H16H6H1.1C0.5,0,0,0.5,0,1.1v21.8C0,23.5,0.5,24,1.1,24h19.8c0.6,0,1.1-0.5,1.1-1.1V1.1C22,0.5,21.5,0,20.9,0z M6,1   h10v3H6V1z M6,5h10c0.6,0,1-0.4,1.1-1H18v16H4V4h0.9C5,4.6,5.4,5,6,5z M20,22H2V2h3v1H3v18h16V3h-2V2h3V22z"/><polygon fill="#C82333" points="7,15 7,17 9,17  "/><rect height="7.1" fill="#C82333" transform="matrix(0.7071 0.7071 -0.7071 0.7071 12.2071 -4.4706)" width="2.8" x="10.1" y="9"/></g></svg>